<svg width="29" height="26" viewBox="0 0 29 26" fill="none" xmlns="http://www.w3.org/2000/svg">
<path d="M13.552 1.82351C13.8572 0.91456 15.1428 0.914559 15.448 1.82351L17.7511 8.68303C17.8878 9.09032 18.2694 9.36475 18.6991 9.36475H26.0805C27.0571 9.36475 27.4546 10.621 26.6557 11.1828L20.741 15.3414C20.379 15.596 20.2273 16.0582 20.3682 16.4777L22.6406 23.2459C22.948 24.1615 21.9075 24.9377 21.1174 24.3822L15.0752 20.1339C14.7301 19.8913 14.2699 19.8913 13.9248 20.1339L7.88259 24.3822C7.09253 24.9377 6.05203 24.1615 6.35943 23.2459L8.63184 16.4777C8.7727 16.0582 8.62104 15.596 8.25901 15.3414L2.34435 11.1828C1.54542 10.621 1.94287 9.36475 2.91951 9.36475H10.3009C10.7306 9.36475 11.1122 9.09032 11.2489 8.68303L13.552 1.82351Z" fill="white" stroke="black" stroke-width="2"/>
</svg>
